<?xml version="1.0" encoding="UTF-8" standalone="no"?>
<!-- Generator: Adobe Illustrator 24.0.1, SVG Export Plug-In . SVG Version: 6.00 Build 0)  -->

<svg
   xmlns:dc="http://purl.org/dc/elements/1.1/"
   xmlns:cc="http://creativecommons.org/ns#"
   xmlns:rdf="http://www.w3.org/1999/02/22-rdf-syntax-ns#"
   xmlns:svg="http://www.w3.org/2000/svg"
   xmlns="http://www.w3.org/2000/svg"
   xmlns:sodipodi="http://sodipodi.sourceforge.net/DTD/sodipodi-0.dtd"
   xmlns:inkscape="http://www.inkscape.org/namespaces/inkscape"
   version="1.1"
   id="Layer_1"
   x="0px"
   y="0px"
   viewBox="0 0 200 200"
   style="enable-background:new 0 0 200 200;"
   xml:space="preserve"
   sodipodi:docname="globe_icon.svg"
   inkscape:version="0.92.4 (5da689c313, 2019-01-14)"
   inkscape:export-filename="C:\Users\Ideliverphones\Desktop\websites\gts\src\favicon.ico.png"
   inkscape:export-xdpi="96"
   inkscape:export-ydpi="96"><metadata
   id="metadata5457"><rdf:RDF><cc:Work
       rdf:about=""><dc:format>image/svg+xml</dc:format><dc:type
         rdf:resource="http://purl.org/dc/dcmitype/StillImage" /></cc:Work></rdf:RDF></metadata><defs
   id="defs5455" /><sodipodi:namedview
   pagecolor="#ffffff"
   bordercolor="#666666"
   borderopacity="1"
   objecttolerance="10"
   gridtolerance="10"
   guidetolerance="10"
   inkscape:pageopacity="0"
   inkscape:pageshadow="2"
   inkscape:window-width="1920"
   inkscape:window-height="1057"
   id="namedview5453"
   showgrid="false"
   inkscape:zoom="1.18"
   inkscape:cx="-18.220339"
   inkscape:cy="100"
   inkscape:window-x="-8"
   inkscape:window-y="30"
   inkscape:window-maximized="1"
   inkscape:current-layer="Layer_1" />
<style
   type="text/css"
   id="style5419">
	.st0{fill:none;stroke:#F15B27;stroke-miterlimit:10;}
</style>
<g
   id="g5450"
   style="stroke:#ef6d42;stroke-opacity:1">
	<path
   id="path36558"
   class="st0"
   d="M96.6,185.5c-2.7-0.1-3.3-38.4-1.5-85.6s5.6-85.3,8.3-85.2l0,0"
   style="stroke:#ef6d42;stroke-opacity:1" />
	<path
   id="path36560"
   class="st0"
   d="M83.5,183.9c-12.4-2.4-15-42-5.8-88.3s26.6-81.9,38.9-79.5l0,0"
   style="stroke:#ef6d42;stroke-opacity:1" />
	<path
   id="path36562"
   class="st0"
   d="M69.2,179.8C49,172,46.5,129.9,63.5,85.9s47.2-73.4,67.4-65.6l0,0"
   style="stroke:#ef6d42;stroke-opacity:1" />
	<path
   id="path36564"
   class="st0"
   d="M53,171.4c-24.4-16.1-23-61.1,3-100.5s66.8-58.3,91.2-42.2l0,0"
   style="stroke:#ef6d42;stroke-opacity:1" />
	<path
   id="path36566"
   class="st0"
   d="M34.9,155.4C12.4,128.9,23.3,82.7,59.3,52.1s83.4-33.9,105.9-7.4l0,0"
   style="stroke:#ef6d42;stroke-opacity:1" />
	<path
   id="path36568"
   class="st0"
   d="M19.1,127.5C6.9,91.5,33.3,50.1,78,34.9s90.8,1.7,103,37.7l0,0"
   style="stroke:#ef6d42;stroke-opacity:1" />
	<path
   id="path36570"
   class="st0"
   d="M15.2,89.7c4.7-38.3,46.4-64.7,93.3-59s81.1,41.4,76.4,79.7"
   style="stroke:#ef6d42;stroke-opacity:1" />
	<path
   id="path36572"
   class="st0"
   d="M26.8,56C45.6,24.7,93.7,19,134.1,43.3s58,69.4,39.2,100.8"
   style="stroke:#ef6d42;stroke-opacity:1" />
	<path
   id="path36574"
   class="st0"
   d="M44.7,34.9c24.4-20.8,69-8.5,99.6,27.5s35.6,82,11.2,102.7"
   style="stroke:#ef6d42;stroke-opacity:1" />
	<path
   id="path36576"
   class="st0"
   d="M61.9,23.5c22.7-11.3,58.2,13.8,79.3,56s19.7,85.7-3,97"
   style="stroke:#ef6d42;stroke-opacity:1" />
	<path
   id="path36578"
   class="st0"
   d="M77,17.7c16.3-4.6,39.9,28.6,52.6,74.1c12.7,45.5,9.8,86-6.5,90.6"
   style="stroke:#ef6d42;stroke-opacity:1" />
	<path
   id="path36580"
   class="st0"
   d="M90.6,15.1c7.3-0.8,17.5,36.6,22.8,83.5s3.5,85.6-3.8,86.4"
   style="stroke:#ef6d42;stroke-opacity:1" />
	<path
   id="path36584"
   class="st0"
   d="M113.5,184.5c-8.8,1.4-18,1.4-26.8,0"
   style="stroke:#ef6d42;stroke-opacity:1" />
	<path
   id="path36586"
   class="st0"
   d="M143.2,173.8c-23.4,13.7-61.7,13.9-85.5,0.5c-0.3-0.2-0.6-0.3-0.8-0.5"
   style="stroke:#ef6d42;stroke-opacity:1" />
	<path
   id="path36588"
   class="st0"
   d="M159.6,161.4c-19.4,18.9-61.8,25.1-94.7,14c-10-3.4-18.4-8.2-24.4-14"
   style="stroke:#ef6d42;stroke-opacity:1" />
	<path
   id="path36590"
   class="st0"
   d="M171.2,147.4c-15,22.5-59,33.8-98.3,25.2c-20.3-4.4-36.2-13.6-44-25.2"
   style="stroke:#ef6d42;stroke-opacity:1" />
	<path
   id="path36592"
   class="st0"
   d="M179.2,132.3c-10.2,25.1-53.9,40.7-97.7,34.8c-30.1-4-53.6-17.5-60.7-34.8"
   style="stroke:#ef6d42;stroke-opacity:1" />
	<path
   id="path36594"
   class="st0"
   d="M184,116.4c-5.2,26.6-46.9,45.7-93.3,42.8c-39.2-2.5-70.2-20.3-74.6-42.8"
   style="stroke:#ef6d42;stroke-opacity:1" />
	<path
   id="path36596"
   class="st0"
   d="M185.6,100c0,27.1-38.3,49-85.5,49s-85.5-22-85.5-49"
   style="stroke:#ef6d42;stroke-opacity:1" />
	<path
   id="path36598"
   class="st0"
   d="M184,83.7c5.2,26.6-28.2,50.5-74.6,53.5c-46.3,3-88.1-16.2-93.3-42.8"
   style="stroke:#ef6d42;stroke-opacity:1" />
	<path
   id="path36600"
   class="st0"
   d="M179.2,67.8c10.2,25.1-16.9,50.2-60.7,56S31.1,114.1,20.9,89c-2.8-7-2.8-14.2,0-21.2"
   style="stroke:#ef6d42;stroke-opacity:1" />
	<path
   id="path36602"
   class="st0"
   d="M171.2,52.6c15,22.5-4.7,47.8-44,56.4s-83.3-2.7-98.3-25.2c-6.7-10-6.7-21.1,0-31.2"
   style="stroke:#ef6d42;stroke-opacity:1" />
	<path
   id="path36604"
   class="st0"
   d="M159.6,38.7c19.4,18.9,8.5,43.2-24.4,54.3S60,97.9,40.5,79c-12.8-12.4-12.8-27.9,0-40.4"
   style="stroke:#ef6d42;stroke-opacity:1" />
	<path
   id="path36606"
   class="st0"
   d="M143.2,26.2c23.4,13.7,23,35.6-0.8,49s-62.1,13.2-85.5-0.5c-23.1-13.5-23.1-35.1,0-48.6"
   style="stroke:#ef6d42;stroke-opacity:1" />
	<path
   id="path36608"
   class="st0"
   d="M113.5,15.6c26.7,4.2,42.4,20.1,35,35.5s-35.1,24.3-61.8,20.1c-26.7-4.2-42.4-20.1-35-35.5   c4.7-9.8,18-17.4,35-20.1"
   style="stroke:#ef6d42;stroke-opacity:1" />
	<path
   id="path36610"
   class="st0"
   d="M138.9,37.6c0,12.3-17.4,22.3-38.8,22.3s-38.8-10-38.8-22.3s17.4-22.3,38.8-22.3   S138.9,25.3,138.9,37.6z"
   style="stroke:#ef6d42;stroke-opacity:1" />
	<path
   id="path36612"
   class="st0"
   d="M126.5,33.4c0,8.4-11.8,15.2-26.4,15.2s-26.4-6.8-26.4-15.2s11.8-15.2,26.4-15.2   S126.5,25.1,126.5,33.4z"
   style="stroke:#ef6d42;stroke-opacity:1" />
	<path
   id="path36614"
   class="st0"
   d="M113.4,30.9c0,4.2-6,7.7-13.4,7.7c-7.4,0-13.4-3.4-13.4-7.7c0-4.2,6-7.7,13.4-7.7   C107.5,23.2,113.4,26.6,113.4,30.9z"
   style="stroke:#ef6d42;stroke-opacity:1" />
	<path
   id="path36616"
   class="st0"
   d="M14.6,100c0-47.2,38.3-85.5,85.5-85.5s85.5,38.3,85.5,85.5s-38.3,85.5-85.5,85.5   S14.6,147.2,14.6,100"
   style="stroke:#ef6d42;stroke-opacity:1" />
</g>
</svg>