<?xml version="1.0" encoding="UTF-8" standalone="no"?>
<!-- Generator: Adobe Illustrator 24.0.1, SVG Export Plug-In . SVG Version: 6.00 Build 0)  -->

<svg
   xmlns:dc="http://purl.org/dc/elements/1.1/"
   xmlns:cc="http://creativecommons.org/ns#"
   xmlns:rdf="http://www.w3.org/1999/02/22-rdf-syntax-ns#"
   xmlns:svg="http://www.w3.org/2000/svg"
   xmlns="http://www.w3.org/2000/svg"
   xmlns:sodipodi="http://sodipodi.sourceforge.net/DTD/sodipodi-0.dtd"
   xmlns:inkscape="http://www.inkscape.org/namespaces/inkscape"
   version="1.1"
   id="Layer_1"
   x="0px"
   y="0px"
   viewBox="0 0 718.4 289.2"
   style="enable-background:new 0 0 718.4 289.2;"
   xml:space="preserve"
   sodipodi:docname="gts_logo.svg"
   inkscape:version="0.92.4 (5da689c313, 2019-01-14)"
   inkscape:export-filename="C:\Users\Ideliverphones\OneDrive\Pictures\img\gts_logo_alt_short_2.png"
   inkscape:export-xdpi="96"
   inkscape:export-ydpi="96"><metadata
   id="metadata1075"><rdf:RDF><cc:Work
       rdf:about=""><dc:format>image/svg+xml</dc:format><dc:type
         rdf:resource="http://purl.org/dc/dcmitype/StillImage" /></cc:Work></rdf:RDF></metadata><defs
   id="defs1073" /><sodipodi:namedview
   pagecolor="#ffffff"
   bordercolor="#666666"
   borderopacity="1"
   objecttolerance="10"
   gridtolerance="10"
   guidetolerance="10"
   inkscape:pageopacity="0"
   inkscape:pageshadow="2"
   inkscape:window-width="1920"
   inkscape:window-height="1057"
   id="namedview1071"
   showgrid="false"
   inkscape:zoom="0.43708239"
   inkscape:cx="-370.6395"
   inkscape:cy="144.60001"
   inkscape:window-x="-8"
   inkscape:window-y="30"
   inkscape:window-maximized="1"
   inkscape:current-layer="Layer_1" />
<style
   type="text/css"
   id="style979">
	.st0{fill:#F15A24;}
	.st1{fill:none;stroke:#F15A24;stroke-miterlimit:10;}
</style>
<g
   id="g987"
   style="fill:#ef6d42;fill-opacity:1">
	<path
   class="st0"
   d="M326.1,118.3h66.7L379,201.2h-21.9l-1.3-16.6c-8.6,13.1-22.3,19.6-41.1,19.6c-13.8,0-25-3-33.7-8.9   c-8.7-5.9-15.4-13.5-20.2-22.9c-4.8-9.3-7.2-20.3-7.2-33c0-25.4,7.2-47.3,21.6-65.6c14.4-18.3,33.6-27.5,57.7-27.5   c33.9,0,55.2,16.2,63.7,48.7l-41.6,6.8c-2.9-13.5-10.5-20.2-22.7-20.2c-11.1,0-19,6.9-23.8,20.6c-4.8,13.7-7.2,27.2-7.2,40.4   c0,17.6,7,26.4,20.9,26.4c10.9,0,18.6-6.2,23.2-18.7h-24.8L326.1,118.3z"
   id="path981"
   style="fill:#ef6d42;fill-opacity:1" />
	<path
   class="st0"
   d="M484.6,84.3l-19.6,117h-44l19.6-117h-32.4l5.9-34.8h109.6l-5.8,34.8H484.6z"
   id="path983"
   style="fill:#ef6d42;fill-opacity:1" />
	<path
   class="st0"
   d="M652,85l-38.9,9.9c-1.1-4.5-3.9-8.1-8.3-10.6c-4.4-2.6-9.3-3.9-14.6-3.9c-10,0-15,3.3-15,10   c0,2.1,0.7,4,2.1,5.5c1.4,1.6,5.4,3.5,11.9,5.8l24,8.6c6.3,2.2,12.1,5.5,17.5,9.8c5.4,4.3,9.3,9,11.7,14.2   c2.4,5.1,3.6,10.6,3.6,16.5c0,15.3-6,27.9-18,37.9c-12,10-28,15-48.1,15c-17.1,0-32.1-3.5-44.8-10.4c-12.8-6.9-21.6-17.6-26.7-31.8   l43.7-8.5c3.8,10.7,13.1,16.1,27.9,16.1c6.2,0,10.7-1.1,13.5-3.4c2.8-2.3,4.2-4.8,4.2-7.7c0-1.8-0.5-3.5-1.6-4.9   c-1.1-1.4-2.2-2.4-3.4-3c-1.2-0.6-7-2.8-17.2-6.6c-13.9-5.1-23.6-9.2-29.2-12.2c-5.6-3-10.2-7.4-14-13.4   c-3.7-5.9-5.6-12.9-5.6-20.8c0-13.8,5.1-25.5,15.2-35.1c10.2-9.6,25.7-14.3,46.6-14.3c16,0,29.6,3.4,41,10.1   C640.8,64.3,648.3,73.4,652,85z"
   id="path985"
   style="fill:#ef6d42;fill-opacity:1" />
</g>
<g
   id="g1018"
   style="stroke:#ef6d42;stroke-opacity:1">
	<path
   id="path36558"
   class="st1"
   d="M127,220.7c-3.1-0.1-3.9-44.8-1.7-99.8c2.2-55,6.5-99.5,9.7-99.4l0,0"
   style="stroke:#ef6d42;stroke-opacity:1" />
	<path
   id="path36560"
   class="st1"
   d="M111.7,218.9c-14.4-2.8-17.4-48.9-6.8-103s31-95.5,45.4-92.7l0,0"
   style="stroke:#ef6d42;stroke-opacity:1" />
	<path
   id="path36562"
   class="st1"
   d="M95,214.1C71.5,205,68.5,156,88.4,104.6s55-85.6,78.6-76.5l0,0"
   style="stroke:#ef6d42;stroke-opacity:1" />
	<path
   id="path36564"
   class="st1"
   d="M76.1,204.3c-28.4-18.7-26.9-71.2,3.5-117.2s77.9-68,106.4-49.3l0,0"
   style="stroke:#ef6d42;stroke-opacity:1" />
	<path
   id="path36566"
   class="st1"
   d="M55,185.7c-26.3-30.9-13.5-84.8,28.4-120.5s97.2-39.5,123.5-8.7v0"
   style="stroke:#ef6d42;stroke-opacity:1" />
	<path
   id="path36568"
   class="st1"
   d="M36.6,153.1c-14.2-41.9,16.5-90.3,68.7-107.9s105.9,2,120.2,43.9v0"
   style="stroke:#ef6d42;stroke-opacity:1" />
	<path
   id="path36570"
   class="st1"
   d="M32,109.1c5.4-44.7,54.2-75.5,108.8-68.8s94.6,48.3,89.1,92.9"
   style="stroke:#ef6d42;stroke-opacity:1" />
	<path
   id="path36572"
   class="st1"
   d="M45.5,69.8c22-36.6,78-43.2,125.2-14.9s67.7,81,45.7,117.5"
   style="stroke:#ef6d42;stroke-opacity:1" />
	<path
   id="path36574"
   class="st1"
   d="M66.4,45.2c28.5-24.2,80.5-9.9,116.2,32.1s41.5,95.6,13,119.8"
   style="stroke:#ef6d42;stroke-opacity:1" />
	<path
   id="path36576"
   class="st1"
   d="M86.5,31.9c26.5-13.2,67.9,16,92.4,65.3s23,99.9-3.5,113.1"
   style="stroke:#ef6d42;stroke-opacity:1" />
	<path
   id="path36578"
   class="st1"
   d="M104.1,25.1c19-5.3,46.5,33.3,61.3,86.4s11.4,100.3-7.6,105.7"
   style="stroke:#ef6d42;stroke-opacity:1" />
	<path
   id="path36580"
   class="st1"
   d="M120,22c8.6-1,20.4,42.6,26.5,97.4s4.1,99.9-4.4,100.8"
   style="stroke:#ef6d42;stroke-opacity:1" />
	<path
   id="path36584"
   class="st1"
   d="M146.6,219.6c-10.2,1.6-21,1.6-31.3,0"
   style="stroke:#ef6d42;stroke-opacity:1" />
	<path
   id="path36586"
   class="st1"
   d="M181.3,207.2c-27.3,15.9-71.9,16.2-99.7,0.6c-0.3-0.2-0.6-0.4-1-0.6"
   style="stroke:#ef6d42;stroke-opacity:1" />
	<path
   id="path36588"
   class="st1"
   d="M200.4,192.7C177.8,214.7,128.3,222,90,209c-11.7-4-21.5-9.6-28.4-16.3"
   style="stroke:#ef6d42;stroke-opacity:1" />
	<path
   id="path36590"
   class="st1"
   d="M214,176.4c-17.5,26.3-68.8,39.5-114.7,29.4C75.7,200.6,57,189.9,48,176.4"
   style="stroke:#ef6d42;stroke-opacity:1" />
	<path
   id="path36592"
   class="st1"
   d="M223.3,158.7c-11.9,29.2-62.9,47.4-113.9,40.6c-35.1-4.7-62.6-20.4-70.8-40.6"
   style="stroke:#ef6d42;stroke-opacity:1" />
	<path
   id="path36594"
   class="st1"
   d="M228.9,140.2c-6,31-54.7,53.3-108.8,49.9c-45.7-2.9-81.8-23.6-86.9-49.9"
   style="stroke:#ef6d42;stroke-opacity:1" />
	<path
   id="path36596"
   class="st1"
   d="M230.7,121.1c0,31.6-44.6,57.2-99.7,57.2s-99.7-25.6-99.7-57.2"
   style="stroke:#ef6d42;stroke-opacity:1" />
	<path
   id="path36598"
   class="st1"
   d="M228.9,102.1c6,31-32.9,58.9-86.9,62.4S39.2,145.6,33.1,114.6"
   style="stroke:#ef6d42;stroke-opacity:1" />
	<path
   id="path36600"
   class="st1"
   d="M223.3,83.5c11.9,29.2-19.8,58.5-70.8,65.3s-102-11.3-113.9-40.6c-3.3-8.1-3.3-16.6,0-24.7"
   style="stroke:#ef6d42;stroke-opacity:1" />
	<path
   id="path36602"
   class="st1"
   d="M214,65.9c17.5,26.3-5.5,55.7-51.3,65.8S65.5,128.5,48,102.2c-7.8-11.7-7.8-24.7,0-36.4"
   style="stroke:#ef6d42;stroke-opacity:1" />
	<path
   id="path36604"
   class="st1"
   d="M200.4,49.6c22.7,22,9.9,50.4-28.4,63.4s-87.8,5.7-110.5-16.3c-15-14.5-15-32.6,0-47.1"
   style="stroke:#ef6d42;stroke-opacity:1" />
	<path
   id="path36606"
   class="st1"
   d="M181.3,35.1c27.3,15.9,26.8,41.5-1,57.2s-72.4,15.4-99.7-0.6c-26.9-15.7-26.9-40.9,0-56.6"
   style="stroke:#ef6d42;stroke-opacity:1" />
	<path
   id="path36608"
   class="st1"
   d="M146.6,22.7c31.2,5,49.5,23.5,40.8,41.4s-40.9,28.4-72.1,23.4S65.9,64,74.5,46.1   c5.5-11.4,21-20.3,40.8-23.4"
   style="stroke:#ef6d42;stroke-opacity:1" />
	<path
   id="path36610"
   class="st1"
   d="M176.3,48.4c0,14.3-20.3,26-45.3,26s-45.3-11.6-45.3-26s20.3-26,45.3-26S176.3,34,176.3,48.4z"
   style="stroke:#ef6d42;stroke-opacity:1" />
	<path
   id="path36612"
   class="st1"
   d="M161.8,43.4c0,9.8-13.8,17.7-30.8,17.7s-30.8-7.9-30.8-17.7c0-9.8,13.8-17.7,30.8-17.7   S161.8,33.7,161.8,43.4z"
   style="stroke:#ef6d42;stroke-opacity:1" />
	<path
   id="path36614"
   class="st1"
   d="M146.6,40.5c0,4.9-7,8.9-15.6,8.9s-15.6-4-15.6-8.9c0-4.9,7-8.9,15.6-8.9   S146.6,35.5,146.6,40.5z"
   style="stroke:#ef6d42;stroke-opacity:1" />
	<path
   id="path36616"
   class="st1"
   d="M31.3,121.1c0-55.1,44.6-99.7,99.7-99.7s99.7,44.6,99.7,99.7s-44.6,99.7-99.7,99.7   S31.3,176.2,31.3,121.1"
   style="stroke:#ef6d42;stroke-opacity:1" />
</g>
<g
   id="g1068"
   style="fill:#ef6d42;fill-opacity:1">
	<path
   class="st0"
   d="M25,250.9h13.7l-2.8,14.8h-4.5l-0.3-3c-1.8,2.3-4.6,3.5-8.4,3.5c-2.8,0-5.1-0.5-6.9-1.6   c-1.8-1.1-3.2-2.4-4.1-4.1c-1-1.7-1.5-3.6-1.5-5.9c0-4.5,1.5-8.4,4.4-11.7c3-3.3,6.9-4.9,11.8-4.9c7,0,11.3,2.9,13.1,8.7L31,248   c-0.6-2.4-2.1-3.6-4.7-3.6c-2.3,0-3.9,1.2-4.9,3.7c-1,2.4-1.5,4.8-1.5,7.2c0,3.1,1.4,4.7,4.3,4.7c2.2,0,3.8-1.1,4.8-3.3h-5.1   L25,250.9z"
   id="path1020"
   style="fill:#ef6d42;fill-opacity:1" />
	<path
   class="st0"
   d="M63.3,259.2l-1.2,6.5H40.9l5.2-27h9.4l-3.9,20.5H63.3z"
   id="path1022"
   style="fill:#ef6d42;fill-opacity:1" />
	<path
   class="st0"
   d="M79.3,266.4c-3.7,0-6.9-1-9.6-3.1c-2.7-2.1-4-5.1-4-9c0-4.5,1.5-8.4,4.5-11.5s7-4.7,11.8-4.7   c3.9,0,7.1,1.1,9.6,3.3c2.5,2.2,3.8,5.1,3.8,8.7c0,4.6-1.5,8.4-4.5,11.6C87.9,264.8,84.1,266.4,79.3,266.4z M79.3,260.1   c1.6,0,2.8-0.6,3.7-1.8c0.8-1.2,1.5-2.9,2-5.2c0.5-2.3,0.7-3.8,0.7-4.6c0-1.4-0.4-2.4-1.1-3.1c-0.7-0.7-1.7-1.1-2.9-1.1   c-2.3,0-3.9,1.4-4.9,4.2c-0.9,2.8-1.4,5.3-1.4,7.4C75.4,258.8,76.7,260.1,79.3,260.1z"
   id="path1024"
   style="fill:#ef6d42;fill-opacity:1" />
	<path
   class="st0"
   d="M96.6,265.7l5.2-27h12.8c2.3,0,4.2,0.2,5.7,0.5c1.5,0.4,2.7,1.1,3.7,2.2c1,1.1,1.5,2.4,1.5,3.9   c0,1.6-0.6,3-1.8,4.2c-1.2,1.2-2.8,1.9-4.8,2.3c3.4,1,5.1,3,5.1,5.9c0,2.1-0.8,3.9-2.4,5.5c-1.6,1.6-4.3,2.4-8.1,2.4H96.6z    M106.7,259.8h4.6c1.4,0,2.4-0.3,3-0.8c0.5-0.5,0.8-1.1,0.8-1.7c0-0.8-0.3-1.4-0.9-1.8c-0.6-0.5-1.5-0.7-2.7-0.7h-3.9L106.7,259.8z    M108.8,249h3.6c2.8,0,4.3-0.8,4.3-2.4c0-1.4-1.1-2.2-3.4-2.2h-3.6L108.8,249z"
   id="path1026"
   style="fill:#ef6d42;fill-opacity:1" />
	<path
   class="st0"
   d="M143.3,260.2H135l-2.9,5.5h-7.7l14.4-27h9.7l4.8,27h-9.2L143.3,260.2z M142.7,254.6l-1.2-7.8l-4.1,7.8H142.7z"
   id="path1028"
   style="fill:#ef6d42;fill-opacity:1" />
	<path
   class="st0"
   d="M178.5,259.2l-1.2,6.5H156l5.2-27h9.4l-3.9,20.5H178.5z"
   id="path1030"
   style="fill:#ef6d42;fill-opacity:1" />
	<path
   class="st0"
   d="M209.7,244.9l-4,20.8h-9l4-20.8H194l1.2-6.2h22.5l-1.2,6.2H209.7z"
   id="path1032"
   style="fill:#ef6d42;fill-opacity:1" />
	<path
   class="st0"
   d="M239.6,259.5l-1.2,6.2h-22.9l5.2-27h22.3l-1.1,5.9h-13.3l-0.8,4.2H239l-1.1,5.8h-11.2l-0.9,4.8H239.6z"
   id="path1034"
   style="fill:#ef6d42;fill-opacity:1" />
	<path
   class="st0"
   d="M261.7,255.3l8.3,0.9c-1,2.9-2.6,5.4-5,7.3c-2.4,1.9-5.3,2.8-8.9,2.8c-3.9,0-7-1.1-9.3-3.4   c-2.3-2.3-3.4-5.3-3.4-8.9c0-4.2,1.4-7.8,4.3-11.1c2.8-3.2,6.7-4.8,11.7-4.8c3.6,0,6.5,1,8.8,2.9c2.2,1.9,3.4,4.5,3.4,7.6l-8.8,0.6   c0-1.7-0.3-2.9-0.9-3.7c-0.6-0.8-1.5-1.2-2.8-1.2c-2.3,0-3.9,1.5-4.7,4.4c-0.8,3-1.3,5.3-1.3,7c0,2.8,1.2,4.1,3.7,4.1   c1.2,0,2.2-0.4,3-1.1C260.5,258.1,261.2,256.9,261.7,255.3z"
   id="path1036"
   style="fill:#ef6d42;fill-opacity:1" />
	<path
   class="st0"
   d="M290.9,254.9h-8.1l-2.1,10.8h-9l5.2-27h9l-1.9,9.9h8.1l1.9-9.9h9l-5.2,27h-9L290.9,254.9z"
   id="path1038"
   style="fill:#ef6d42;fill-opacity:1" />
	<path
   class="st0"
   d="M334.7,238.8l-5.2,27h-6.9l-6-10.4c-1.6-2.8-2.6-5.1-3.1-6.7c0,0.4,0,0.7,0,0.9c0,0.7-0.1,1.7-0.3,2.9   l-2.5,13.2h-7.6l5.2-27h8.4l3.4,6.2c2.4,4.3,3.9,7.5,4.6,9.6c0-0.5-0.1-0.9-0.1-1.2c0-0.8,0.2-2.2,0.6-4.4l2-10.2H334.7z"
   id="path1040"
   style="fill:#ef6d42;fill-opacity:1" />
	<path
   class="st0"
   d="M349.6,266.4c-3.7,0-6.9-1-9.6-3.1c-2.7-2.1-4-5.1-4-9c0-4.5,1.5-8.4,4.5-11.5c3-3.2,7-4.7,11.8-4.7   c3.9,0,7.1,1.1,9.6,3.3c2.5,2.2,3.8,5.1,3.8,8.7c0,4.6-1.5,8.4-4.5,11.6C358.2,264.8,354.4,266.4,349.6,266.4z M349.6,260.1   c1.6,0,2.8-0.6,3.7-1.8c0.8-1.2,1.5-2.9,2-5.2c0.5-2.3,0.7-3.8,0.7-4.6c0-1.4-0.4-2.4-1.1-3.1c-0.7-0.7-1.7-1.1-2.9-1.1   c-2.3,0-3.9,1.4-4.9,4.2c-0.9,2.8-1.4,5.3-1.4,7.4C345.7,258.8,347,260.1,349.6,260.1z"
   id="path1042"
   style="fill:#ef6d42;fill-opacity:1" />
	<path
   class="st0"
   d="M389.3,259.2l-1.2,6.5h-21.2l5.2-27h9.4l-3.9,20.5H389.3z"
   id="path1044"
   style="fill:#ef6d42;fill-opacity:1" />
	<path
   class="st0"
   d="M405.3,266.4c-3.7,0-6.9-1-9.6-3.1c-2.7-2.1-4-5.1-4-9c0-4.5,1.5-8.4,4.5-11.5c3-3.2,7-4.7,11.8-4.7   c3.9,0,7.1,1.1,9.6,3.3c2.5,2.2,3.8,5.1,3.8,8.7c0,4.6-1.5,8.4-4.5,11.6C414,264.8,410.1,266.4,405.3,266.4z M405.4,260.1   c1.6,0,2.8-0.6,3.7-1.8c0.8-1.2,1.5-2.9,2-5.2c0.5-2.3,0.7-3.8,0.7-4.6c0-1.4-0.4-2.4-1.1-3.1c-0.7-0.7-1.7-1.1-2.9-1.1   c-2.3,0-3.9,1.4-4.9,4.2c-0.9,2.8-1.4,5.3-1.4,7.4C401.4,258.8,402.7,260.1,405.4,260.1z"
   id="path1046"
   style="fill:#ef6d42;fill-opacity:1" />
	<path
   class="st0"
   d="M438.5,250.9h13.7l-2.8,14.8h-4.5l-0.3-3c-1.8,2.3-4.6,3.5-8.4,3.5c-2.8,0-5.1-0.5-6.9-1.6   c-1.8-1.1-3.2-2.4-4.1-4.1c-1-1.7-1.5-3.6-1.5-5.9c0-4.5,1.5-8.4,4.4-11.7c3-3.3,6.9-4.9,11.8-4.9c7,0,11.3,2.9,13.1,8.7l-8.5,1.2   c-0.6-2.4-2.1-3.6-4.7-3.6c-2.3,0-3.9,1.2-4.9,3.7c-1,2.4-1.5,4.8-1.5,7.2c0,3.1,1.4,4.7,4.3,4.7c2.2,0,3.8-1.1,4.8-3.3h-5.1   L438.5,250.9z"
   id="path1048"
   style="fill:#ef6d42;fill-opacity:1" />
	<path
   class="st0"
   d="M483.2,238.8L470.4,254l-2.3,11.7h-9.2l2.3-12.1l-7.3-14.9h9.8l3.2,7.5c0.2,0.5,0.5,1.1,0.7,1.8l1.5-2.1   l5.5-7.2H483.2z"
   id="path1050"
   style="fill:#ef6d42;fill-opacity:1" />
	<path
   class="st0"
   d="M519.8,245l-8,1.8c-0.2-0.8-0.8-1.4-1.7-1.9c-0.9-0.5-1.9-0.7-3-0.7c-2,0-3.1,0.6-3.1,1.8c0,0.4,0.1,0.7,0.4,1   c0.3,0.3,1.1,0.6,2.4,1l4.9,1.5c1.3,0.4,2.5,1,3.6,1.7c1.1,0.8,1.9,1.6,2.4,2.5c0.5,0.9,0.7,1.9,0.7,2.9c0,2.7-1.2,5-3.7,6.8   c-2.5,1.8-5.8,2.7-9.9,2.7c-3.5,0-6.6-0.6-9.2-1.9c-2.6-1.2-4.4-3.1-5.5-5.7l9-1.5c0.8,1.9,2.7,2.9,5.7,2.9c1.3,0,2.2-0.2,2.8-0.6   s0.9-0.9,0.9-1.4c0-0.3-0.1-0.6-0.3-0.9c-0.2-0.3-0.5-0.4-0.7-0.5c-0.3-0.1-1.4-0.5-3.5-1.2c-2.9-0.9-4.8-1.6-6-2.2   c-1.1-0.5-2.1-1.3-2.9-2.4c-0.8-1.1-1.1-2.3-1.1-3.7c0-2.5,1-4.5,3.1-6.2c2.1-1.7,5.3-2.6,9.6-2.6c3.3,0,6.1,0.6,8.4,1.8   C517.5,241.3,519.1,242.9,519.8,245z"
   id="path1052"
   style="fill:#ef6d42;fill-opacity:1" />
	<path
   class="st0"
   d="M544.4,259.5l-1.2,6.2h-22.9l5.2-27h22.3l-1.1,5.9h-13.3l-0.8,4.2h11.2l-1.1,5.8h-11.2l-0.9,4.8H544.4z"
   id="path1054"
   style="fill:#ef6d42;fill-opacity:1" />
	<path
   class="st0"
   d="M570.1,254.4l3.4,11.3h-9.2l-2.7-10.3h-3.7l-2,10.3H547l5.2-27h13.6c3.7,0,6.4,0.7,8.2,2.1   c1.8,1.4,2.7,3.3,2.7,5.7C576.6,250.4,574.4,253,570.1,254.4z M558.9,249.9h3.5c3.4,0,5-1,5-3c0-1.7-1.4-2.5-4.2-2.5H560   L558.9,249.9z"
   id="path1056"
   style="fill:#ef6d42;fill-opacity:1" />
	<path
   class="st0"
   d="M607.7,238.8l-13.9,27h-9l-6.1-27h9.5l3.4,17.4c0.2-0.5,1.2-2.6,3-6.2l5.6-11.2H607.7z"
   id="path1058"
   style="fill:#ef6d42;fill-opacity:1" />
	<path
   class="st0"
   d="M619.2,238.8l-5.2,27h-8.8l5.2-27H619.2z"
   id="path1060"
   style="fill:#ef6d42;fill-opacity:1" />
	<path
   class="st0"
   d="M638.9,255.3l8.3,0.9c-1,2.9-2.6,5.4-5,7.3c-2.4,1.9-5.3,2.8-8.9,2.8c-3.9,0-7-1.1-9.3-3.4   c-2.3-2.3-3.4-5.3-3.4-8.9c0-4.2,1.4-7.8,4.3-11.1c2.8-3.2,6.7-4.8,11.7-4.8c3.6,0,6.5,1,8.8,2.9c2.2,1.9,3.4,4.5,3.4,7.6l-8.8,0.6   c0-1.7-0.3-2.9-0.9-3.7c-0.6-0.8-1.5-1.2-2.8-1.2c-2.3,0-3.9,1.5-4.7,4.4c-0.8,3-1.3,5.3-1.3,7c0,2.8,1.2,4.1,3.7,4.1   c1.2,0,2.2-0.4,3-1.1C637.7,258.1,638.3,256.9,638.9,255.3z"
   id="path1062"
   style="fill:#ef6d42;fill-opacity:1" />
	<path
   class="st0"
   d="M672.9,259.5l-1.2,6.2h-22.9l5.2-27h22.3l-1.1,5.9h-13.3l-0.8,4.2h11.2l-1.1,5.8H660l-0.9,4.8H672.9z"
   id="path1064"
   style="fill:#ef6d42;fill-opacity:1" />
	<path
   class="st0"
   d="M703.8,245l-8,1.8c-0.2-0.8-0.8-1.4-1.7-1.9c-0.9-0.5-1.9-0.7-3-0.7c-2,0-3.1,0.6-3.1,1.8c0,0.4,0.1,0.7,0.4,1   c0.3,0.3,1.1,0.6,2.4,1l4.9,1.5c1.3,0.4,2.5,1,3.6,1.7c1.1,0.8,1.9,1.6,2.4,2.5c0.5,0.9,0.7,1.9,0.7,2.9c0,2.7-1.2,5-3.7,6.8   c-2.5,1.8-5.8,2.7-9.9,2.7c-3.5,0-6.6-0.6-9.2-1.9c-2.6-1.2-4.4-3.1-5.5-5.7l9-1.5c0.8,1.9,2.7,2.9,5.7,2.9c1.3,0,2.2-0.2,2.8-0.6   c0.6-0.4,0.9-0.9,0.9-1.4c0-0.3-0.1-0.6-0.3-0.9c-0.2-0.3-0.5-0.4-0.7-0.5c-0.3-0.1-1.4-0.5-3.5-1.2c-2.9-0.9-4.8-1.6-6-2.2   c-1.1-0.5-2.1-1.3-2.9-2.4c-0.8-1.1-1.1-2.3-1.1-3.7c0-2.5,1-4.5,3.1-6.2c2.1-1.7,5.3-2.6,9.6-2.6c3.3,0,6.1,0.6,8.4,1.8   C701.5,241.3,703,242.9,703.8,245z"
   id="path1066"
   style="fill:#ef6d42;fill-opacity:1" />
</g>
</svg>