<?xml version="1.0" encoding="UTF-8" standalone="no"?>
<!-- Generator: Adobe Illustrator 24.0.1, SVG Export Plug-In . SVG Version: 6.00 Build 0)  -->

<svg
   xmlns:dc="http://purl.org/dc/elements/1.1/"
   xmlns:cc="http://creativecommons.org/ns#"
   xmlns:rdf="http://www.w3.org/1999/02/22-rdf-syntax-ns#"
   xmlns:svg="http://www.w3.org/2000/svg"
   xmlns="http://www.w3.org/2000/svg"
   xmlns:sodipodi="http://sodipodi.sourceforge.net/DTD/sodipodi-0.dtd"
   xmlns:inkscape="http://www.inkscape.org/namespaces/inkscape"
   version="1.1"
   id="Layer_1"
   x="0px"
   y="0px"
   viewBox="0 0 718.4 289.2"
   style="enable-background:new 0 0 718.4 289.2;"
   xml:space="preserve"
   sodipodi:docname="gts_logo_short.svg"
   inkscape:version="0.92.4 (5da689c313, 2019-01-14)"
   inkscape:export-filename="C:\Users\Ideliverphones\OneDrive\Pictures\img\gts_logo_alt_short.png"
   inkscape:export-xdpi="96"
   inkscape:export-ydpi="96"><metadata
   id="metadata1075"><rdf:RDF><cc:Work
       rdf:about=""><dc:format>image/svg+xml</dc:format><dc:type
         rdf:resource="http://purl.org/dc/dcmitype/StillImage" /><dc:title></dc:title></cc:Work></rdf:RDF></metadata><defs
   id="defs1073" /><sodipodi:namedview
   pagecolor="#ffffff"
   bordercolor="#666666"
   borderopacity="1"
   objecttolerance="10"
   gridtolerance="10"
   guidetolerance="10"
   inkscape:pageopacity="0"
   inkscape:pageshadow="2"
   inkscape:window-width="1920"
   inkscape:window-height="1057"
   id="namedview1071"
   showgrid="false"
   inkscape:zoom="0.43708239"
   inkscape:cx="-370.6395"
   inkscape:cy="144.60001"
   inkscape:window-x="-8"
   inkscape:window-y="30"
   inkscape:window-maximized="1"
   inkscape:current-layer="Layer_1" />
<style
   type="text/css"
   id="style979">
	.st0{fill:#F15A24;}
	.st1{fill:none;stroke:#F15A24;stroke-miterlimit:10;}
</style>
<g
   id="g987"
   style="fill:#ef6d42;fill-opacity:1"
   transform="matrix(1.0883927,0,0,1.0883927,-2.7224957,8.2788204)">
	<path
   class="st0"
   d="m 326.1,118.3 h 66.7 L 379,201.2 h -21.9 l -1.3,-16.6 c -8.6,13.1 -22.3,19.6 -41.1,19.6 -13.8,0 -25,-3 -33.7,-8.9 -8.7,-5.9 -15.4,-13.5 -20.2,-22.9 -4.8,-9.3 -7.2,-20.3 -7.2,-33 0,-25.4 7.2,-47.3 21.6,-65.6 14.4,-18.3 33.6,-27.5 57.7,-27.5 33.9,0 55.2,16.2 63.7,48.7 l -41.6,6.8 c -2.9,-13.5 -10.5,-20.2 -22.7,-20.2 -11.1,0 -19,6.9 -23.8,20.6 -4.8,13.7 -7.2,27.2 -7.2,40.4 0,17.6 7,26.4 20.9,26.4 10.9,0 18.6,-6.2 23.2,-18.7 h -24.8 z"
   id="path981"
   style="fill:#ef6d42;fill-opacity:1"
   inkscape:connector-curvature="0" />
	<path
   class="st0"
   d="m 484.6,84.3 -19.6,117 h -44 l 19.6,-117 h -32.4 l 5.9,-34.8 h 109.6 l -5.8,34.8 z"
   id="path983"
   style="fill:#ef6d42;fill-opacity:1"
   inkscape:connector-curvature="0" />
	<path
   class="st0"
   d="m 652,85 -38.9,9.9 c -1.1,-4.5 -3.9,-8.1 -8.3,-10.6 -4.4,-2.6 -9.3,-3.9 -14.6,-3.9 -10,0 -15,3.3 -15,10 0,2.1 0.7,4 2.1,5.5 1.4,1.6 5.4,3.5 11.9,5.8 l 24,8.6 c 6.3,2.2 12.1,5.5 17.5,9.8 5.4,4.3 9.3,9 11.7,14.2 2.4,5.1 3.6,10.6 3.6,16.5 0,15.3 -6,27.9 -18,37.9 -12,10 -28,15 -48.1,15 -17.1,0 -32.1,-3.5 -44.8,-10.4 -12.8,-6.9 -21.6,-17.6 -26.7,-31.8 l 43.7,-8.5 c 3.8,10.7 13.1,16.1 27.9,16.1 6.2,0 10.7,-1.1 13.5,-3.4 2.8,-2.3 4.2,-4.8 4.2,-7.7 0,-1.8 -0.5,-3.5 -1.6,-4.9 -1.1,-1.4 -2.2,-2.4 -3.4,-3 -1.2,-0.6 -7,-2.8 -17.2,-6.6 -13.9,-5.1 -23.6,-9.2 -29.2,-12.2 -5.6,-3 -10.2,-7.4 -14,-13.4 -3.7,-5.9 -5.6,-12.9 -5.6,-20.8 0,-13.8 5.1,-25.5 15.2,-35.1 10.2,-9.6 25.7,-14.3 46.6,-14.3 16,0 29.6,3.4 41,10.1 11.3,6.5 18.8,15.6 22.5,27.2 z"
   id="path985"
   style="fill:#ef6d42;fill-opacity:1"
   inkscape:connector-curvature="0" />
</g>
<g
   id="g1018"
   style="stroke:#ef6d42;stroke-opacity:1"
   transform="matrix(1.0883927,0,0,1.0883927,-2.7224957,12.795537)">
	<path
   id="path36558"
   class="st1"
   d="m 127,220.7 c -3.1,-0.1 -3.9,-44.8 -1.7,-99.8 2.2,-55 6.5,-99.5 9.7,-99.4 v 0"
   style="fill:none;stroke:#ef6d42;stroke-miterlimit:10;stroke-opacity:1"
   inkscape:connector-curvature="0" />
	<path
   id="path36560"
   class="st1"
   d="m 111.7,218.9 c -14.4,-2.8 -17.4,-48.9 -6.8,-103 10.6,-54.1 31,-95.5 45.4,-92.7 v 0"
   style="fill:none;stroke:#ef6d42;stroke-miterlimit:10;stroke-opacity:1"
   inkscape:connector-curvature="0" />
	<path
   id="path36562"
   class="st1"
   d="M 95,214.1 C 71.5,205 68.5,156 88.4,104.6 108.3,53.2 143.4,19 167,28.1 v 0"
   style="fill:none;stroke:#ef6d42;stroke-miterlimit:10;stroke-opacity:1"
   inkscape:connector-curvature="0" />
	<path
   id="path36564"
   class="st1"
   d="M 76.1,204.3 C 47.7,185.6 49.2,133.1 79.6,87.1 110,41.1 157.5,19.1 186,37.8 v 0"
   style="fill:none;stroke:#ef6d42;stroke-miterlimit:10;stroke-opacity:1"
   inkscape:connector-curvature="0" />
	<path
   id="path36566"
   class="st1"
   d="M 55,185.7 C 28.7,154.8 41.5,100.9 83.4,65.2 125.3,29.5 180.6,25.7 206.9,56.5 v 0"
   style="fill:none;stroke:#ef6d42;stroke-miterlimit:10;stroke-opacity:1"
   inkscape:connector-curvature="0" />
	<path
   id="path36568"
   class="st1"
   d="M 36.6,153.1 C 22.4,111.2 53.1,62.8 105.3,45.2 c 52.2,-17.6 105.9,2 120.2,43.9 v 0"
   style="fill:none;stroke:#ef6d42;stroke-miterlimit:10;stroke-opacity:1"
   inkscape:connector-curvature="0" />
	<path
   id="path36570"
   class="st1"
   d="m 32,109.1 c 5.4,-44.7 54.2,-75.5 108.8,-68.8 54.6,6.7 94.6,48.3 89.1,92.9"
   style="fill:none;stroke:#ef6d42;stroke-miterlimit:10;stroke-opacity:1"
   inkscape:connector-curvature="0" />
	<path
   id="path36572"
   class="st1"
   d="m 45.5,69.8 c 22,-36.6 78,-43.2 125.2,-14.9 47.2,28.3 67.7,81 45.7,117.5"
   style="fill:none;stroke:#ef6d42;stroke-miterlimit:10;stroke-opacity:1"
   inkscape:connector-curvature="0" />
	<path
   id="path36574"
   class="st1"
   d="m 66.4,45.2 c 28.5,-24.2 80.5,-9.9 116.2,32.1 35.7,42 41.5,95.6 13,119.8"
   style="fill:none;stroke:#ef6d42;stroke-miterlimit:10;stroke-opacity:1"
   inkscape:connector-curvature="0" />
	<path
   id="path36576"
   class="st1"
   d="m 86.5,31.9 c 26.5,-13.2 67.9,16 92.4,65.3 24.5,49.3 23,99.9 -3.5,113.1"
   style="fill:none;stroke:#ef6d42;stroke-miterlimit:10;stroke-opacity:1"
   inkscape:connector-curvature="0" />
	<path
   id="path36578"
   class="st1"
   d="m 104.1,25.1 c 19,-5.3 46.5,33.3 61.3,86.4 14.8,53.1 11.4,100.3 -7.6,105.7"
   style="fill:none;stroke:#ef6d42;stroke-miterlimit:10;stroke-opacity:1"
   inkscape:connector-curvature="0" />
	<path
   id="path36580"
   class="st1"
   d="m 120,22 c 8.6,-1 20.4,42.6 26.5,97.4 6.1,54.8 4.1,99.9 -4.4,100.8"
   style="fill:none;stroke:#ef6d42;stroke-miterlimit:10;stroke-opacity:1"
   inkscape:connector-curvature="0" />
	<path
   id="path36584"
   class="st1"
   d="m 146.6,219.6 c -10.2,1.6 -21,1.6 -31.3,0"
   style="fill:none;stroke:#ef6d42;stroke-miterlimit:10;stroke-opacity:1"
   inkscape:connector-curvature="0" />
	<path
   id="path36586"
   class="st1"
   d="m 181.3,207.2 c -27.3,15.9 -71.9,16.2 -99.7,0.6 -0.3,-0.2 -0.6,-0.4 -1,-0.6"
   style="fill:none;stroke:#ef6d42;stroke-miterlimit:10;stroke-opacity:1"
   inkscape:connector-curvature="0" />
	<path
   id="path36588"
   class="st1"
   d="M 200.4,192.7 C 177.8,214.7 128.3,222 90,209 78.3,205 68.5,199.4 61.6,192.7"
   style="fill:none;stroke:#ef6d42;stroke-miterlimit:10;stroke-opacity:1"
   inkscape:connector-curvature="0" />
	<path
   id="path36590"
   class="st1"
   d="M 214,176.4 C 196.5,202.7 145.2,215.9 99.3,205.8 75.7,200.6 57,189.9 48,176.4"
   style="fill:none;stroke:#ef6d42;stroke-miterlimit:10;stroke-opacity:1"
   inkscape:connector-curvature="0" />
	<path
   id="path36592"
   class="st1"
   d="M 223.3,158.7 C 211.4,187.9 160.4,206.1 109.4,199.3 74.3,194.6 46.8,178.9 38.6,158.7"
   style="fill:none;stroke:#ef6d42;stroke-miterlimit:10;stroke-opacity:1"
   inkscape:connector-curvature="0" />
	<path
   id="path36594"
   class="st1"
   d="m 228.9,140.2 c -6,31 -54.7,53.3 -108.8,49.9 -45.7,-2.9 -81.8,-23.6 -86.9,-49.9"
   style="fill:none;stroke:#ef6d42;stroke-miterlimit:10;stroke-opacity:1"
   inkscape:connector-curvature="0" />
	<path
   id="path36596"
   class="st1"
   d="m 230.7,121.1 c 0,31.6 -44.6,57.2 -99.7,57.2 -55.1,0 -99.7,-25.6 -99.7,-57.2"
   style="fill:none;stroke:#ef6d42;stroke-miterlimit:10;stroke-opacity:1"
   inkscape:connector-curvature="0" />
	<path
   id="path36598"
   class="st1"
   d="m 228.9,102.1 c 6,31 -32.9,58.9 -86.9,62.4 C 88,168 39.2,145.6 33.1,114.6"
   style="fill:none;stroke:#ef6d42;stroke-miterlimit:10;stroke-opacity:1"
   inkscape:connector-curvature="0" />
	<path
   id="path36600"
   class="st1"
   d="m 223.3,83.5 c 11.9,29.2 -19.8,58.5 -70.8,65.3 -51,6.8 -102,-11.3 -113.9,-40.6 -3.3,-8.1 -3.3,-16.6 0,-24.7"
   style="fill:none;stroke:#ef6d42;stroke-miterlimit:10;stroke-opacity:1"
   inkscape:connector-curvature="0" />
	<path
   id="path36602"
   class="st1"
   d="m 214,65.9 c 17.5,26.3 -5.5,55.7 -51.3,65.8 C 116.9,141.8 65.5,128.5 48,102.2 40.2,90.5 40.2,77.5 48,65.8"
   style="fill:none;stroke:#ef6d42;stroke-miterlimit:10;stroke-opacity:1"
   inkscape:connector-curvature="0" />
	<path
   id="path36604"
   class="st1"
   d="m 200.4,49.6 c 22.7,22 9.9,50.4 -28.4,63.4 -38.3,13 -87.8,5.7 -110.5,-16.3 -15,-14.5 -15,-32.6 0,-47.1"
   style="fill:none;stroke:#ef6d42;stroke-miterlimit:10;stroke-opacity:1"
   inkscape:connector-curvature="0" />
	<path
   id="path36606"
   class="st1"
   d="m 181.3,35.1 c 27.3,15.9 26.8,41.5 -1,57.2 C 152.5,108 107.9,107.7 80.6,91.7 53.7,76 53.7,50.8 80.6,35.1"
   style="fill:none;stroke:#ef6d42;stroke-miterlimit:10;stroke-opacity:1"
   inkscape:connector-curvature="0" />
	<path
   id="path36608"
   class="st1"
   d="m 146.6,22.7 c 31.2,5 49.5,23.5 40.8,41.4 C 178.7,82 146.5,92.5 115.3,87.5 84.1,82.5 65.9,64 74.5,46.1 80,34.7 95.5,25.8 115.3,22.7"
   style="fill:none;stroke:#ef6d42;stroke-miterlimit:10;stroke-opacity:1"
   inkscape:connector-curvature="0" />
	<path
   id="path36610"
   class="st1"
   d="m 176.3,48.4 c 0,14.3 -20.3,26 -45.3,26 -25,0 -45.3,-11.6 -45.3,-26 0,-14.4 20.3,-26 45.3,-26 25,0 45.3,11.6 45.3,26 z"
   style="fill:none;stroke:#ef6d42;stroke-miterlimit:10;stroke-opacity:1"
   inkscape:connector-curvature="0" />
	<path
   id="path36612"
   class="st1"
   d="m 161.8,43.4 c 0,9.8 -13.8,17.7 -30.8,17.7 -17,0 -30.8,-7.9 -30.8,-17.7 0,-9.8 13.8,-17.7 30.8,-17.7 17,0 30.8,8 30.8,17.7 z"
   style="fill:none;stroke:#ef6d42;stroke-miterlimit:10;stroke-opacity:1"
   inkscape:connector-curvature="0" />
	<path
   id="path36614"
   class="st1"
   d="m 146.6,40.5 c 0,4.9 -7,8.9 -15.6,8.9 -8.6,0 -15.6,-4 -15.6,-8.9 0,-4.9 7,-8.9 15.6,-8.9 8.6,0 15.6,3.9 15.6,8.9 z"
   style="fill:none;stroke:#ef6d42;stroke-miterlimit:10;stroke-opacity:1"
   inkscape:connector-curvature="0" />
	<path
   id="path36616"
   class="st1"
   d="M 31.3,121.1 C 31.3,66 75.9,21.4 131,21.4 c 55.1,0 99.7,44.6 99.7,99.7 0,55.1 -44.6,99.7 -99.7,99.7 -55.1,0 -99.7,-44.6 -99.7,-99.7"
   style="fill:none;stroke:#ef6d42;stroke-miterlimit:10;stroke-opacity:1"
   inkscape:connector-curvature="0" />
</g>

</svg>